
<svg id="noun_Home_1191731" xmlns="http://www.w3.org/2000/svg" width="69.46" height="67.603" viewBox="0 0 69.46 67.603">
  <path id="Path_110" data-name="Path 110" d="M68,33.189a3.031,3.031,0,0,0-3.032,3.031V55.152a4.426,4.426,0,0,1-4.411,4.426H36.077V41.98a3.607,3.607,0,0,1,3.607-3.607h4.456a3.607,3.607,0,0,1,3.607,3.607v9.094a3.031,3.031,0,1,0,6.063,0V41.98a9.686,9.686,0,0,0-9.67-9.67H39.685a9.686,9.686,0,0,0-9.67,9.67v17.6H23.269a4.426,4.426,0,0,1-4.426-4.426V36.221a3.031,3.031,0,1,0-6.063,0V55.152A10.5,10.5,0,0,0,23.269,65.641H60.556A10.5,10.5,0,0,0,71.045,55.152V36.221A3.031,3.031,0,0,0,68,33.189Z" transform="translate(-7.324 1.962)"/>
  <path id="Path_111" data-name="Path 111" d="M77.737,39.272,51.348,12.808a10.61,10.61,0,0,0-15.006,0L9.8,39.272A3.031,3.031,0,0,0,14.076,43.5l26.48-26.4A4.547,4.547,0,0,1,47,17.1L73.463,43.5a3.033,3.033,0,0,0,4.29-4.29Z" transform="translate(-9.18 -9.699)"/>
</svg>
